# xmcd
#
# Track frame offsets: 
#        183
#        14125
#        78408
#        92968
#        107718
#        122188
#        137525
#
# Disc length: 2021 seconds
#
# Revision: 0
# Processed by: cddbd v1.5.2PL0 Copyright (c) Steve Scherf et al.
# Submitted via: ExactAudioCopy v0.99pb4
#
DISCID=5b07e307
DTITLE=Bessie Smith - St. Louis Blues OST
DYEAR=1929
DGENRE=Blues
TTITLE0=St. Louis Blues (78rpm matrix)
TTITLE1=St. Louis Blues (OST)
TTITLE2=Yellow Dog Blues (alt)
TTITLE3=Soft Pedal Blues (alt)
TTITLE4=Nashville Women's Blues (alt)
TTITLE5=Careless Love Blues (alt)
TTITLE6=Muddy Water (alt)
EXTD=
EXTT0=
EXTT1=
EXTT2=
EXTT3=
EXTT4=
EXTT5=
EXTT6=
PLAYORDER=
